<svg xmlns="http://www.w3.org/2000/svg" viewBox="0 0 1200 630" role="img" aria-label="Top 5 IPTV Boxes UK 2026 — Ranked">
  <defs>
    <linearGradient id="bg" x1="0" y1="0" x2="1" y2="1">
      <stop offset="0%" stop-color="#050914"/>
      <stop offset="55%" stop-color="#0A0F1E"/>
      <stop offset="100%" stop-color="#0F1B36"/>
    </linearGradient>
    <linearGradient id="accent" x1="0" y1="0" x2="1" y2="0">
      <stop offset="0%" stop-color="#3B82F6"/>
      <stop offset="55%" stop-color="#2563EB"/>
      <stop offset="100%" stop-color="#22D3EE"/>
    </linearGradient>
    <linearGradient id="cardStroke" x1="0" y1="0" x2="1" y2="0">
      <stop offset="0%" stop-color="#22D3EE" stop-opacity="0.55"/>
      <stop offset="100%" stop-color="#2563EB" stop-opacity="0.15"/>
    </linearGradient>
    <radialGradient id="glowA" cx="0.5" cy="0.5" r="0.5">
      <stop offset="0%" stop-color="#3B82F6" stop-opacity="0.55"/>
      <stop offset="100%" stop-color="#3B82F6" stop-opacity="0"/>
    </radialGradient>
    <radialGradient id="glowB" cx="0.5" cy="0.5" r="0.5">
      <stop offset="0%" stop-color="#22D3EE" stop-opacity="0.45"/>
      <stop offset="100%" stop-color="#22D3EE" stop-opacity="0"/>
    </radialGradient>
  </defs>

  <rect width="1200" height="630" fill="url(#bg)"/>
  <circle cx="1050" cy="120" r="260" fill="url(#glowA)"/>
  <circle cx="120" cy="540" r="220" fill="url(#glowB)"/>

  <!-- subtle grid -->
  <g opacity="0.08" stroke="#94B3FF" stroke-width="1">
    <path d="M0 90 H1200 M0 180 H1200 M0 270 H1200 M0 360 H1200 M0 450 H1200 M0 540 H1200"/>
    <path d="M120 0 V630 M240 0 V630 M360 0 V630 M480 0 V630 M600 0 V630 M720 0 V630 M840 0 V630 M960 0 V630 M1080 0 V630"/>
  </g>

  <!-- eyebrow -->
  <g transform="translate(80, 90)">
    <rect x="0" y="0" width="220" height="36" rx="18" fill="#0F1B36" stroke="#22D3EE" stroke-opacity="0.35"/>
    <circle cx="18" cy="18" r="4" fill="#22D3EE"/>
    <text x="32" y="24" font-family="Poppins, Inter, sans-serif" font-size="13" font-weight="600" fill="#C7CFE0" letter-spacing="2">BUYING GUIDE · 2026</text>
  </g>

  <!-- Title -->
  <text x="80" y="220" font-family="Poppins, Inter, sans-serif" font-size="78" font-weight="700" fill="#F5F7FA">Top 5 IPTV Boxes</text>
  <text x="80" y="310" font-family="Poppins, Inter, sans-serif" font-size="78" font-weight="700" fill="url(#accent)">UK 2026 · Ranked</text>

  <!-- Subtitle -->
  <text x="80" y="360" font-family="Inter, sans-serif" font-size="22" fill="#C7CFE0">Formuler · Fire Stick 4K Max · Nvidia Shield · BuzzTV · MAG</text>

  <!-- Ranked chips -->
  <g transform="translate(80, 420)" font-family="Poppins, Inter, sans-serif">
    <g>
      <rect x="0" y="0" width="200" height="120" rx="18" fill="#0F1B36" stroke="url(#cardStroke)"/>
      <text x="16" y="34" font-size="14" font-weight="600" fill="#22D3EE" letter-spacing="2">#1</text>
      <text x="16" y="72" font-size="20" font-weight="700" fill="#F5F7FA">Formuler</text>
      <text x="16" y="98" font-size="16" fill="#C7CFE0">Z11 Pro Max</text>
    </g>
    <g transform="translate(215, 0)">
      <rect x="0" y="0" width="200" height="120" rx="18" fill="#0F1B36" stroke="url(#cardStroke)"/>
      <text x="16" y="34" font-size="14" font-weight="600" fill="#22D3EE" letter-spacing="2">#2</text>
      <text x="16" y="72" font-size="20" font-weight="700" fill="#F5F7FA">Fire Stick</text>
      <text x="16" y="98" font-size="16" fill="#C7CFE0">4K Max (2nd gen)</text>
    </g>
    <g transform="translate(430, 0)">
      <rect x="0" y="0" width="200" height="120" rx="18" fill="#0F1B36" stroke="url(#cardStroke)"/>
      <text x="16" y="34" font-size="14" font-weight="600" fill="#22D3EE" letter-spacing="2">#3</text>
      <text x="16" y="72" font-size="20" font-weight="700" fill="#F5F7FA">Nvidia</text>
      <text x="16" y="98" font-size="16" fill="#C7CFE0">Shield TV Pro</text>
    </g>
    <g transform="translate(645, 0)">
      <rect x="0" y="0" width="200" height="120" rx="18" fill="#0F1B36" stroke="url(#cardStroke)"/>
      <text x="16" y="34" font-size="14" font-weight="600" fill="#22D3EE" letter-spacing="2">#4</text>
      <text x="16" y="72" font-size="20" font-weight="700" fill="#F5F7FA">BuzzTV</text>
      <text x="16" y="98" font-size="16" fill="#C7CFE0">XR4500 / XPL</text>
    </g>
    <g transform="translate(860, 0)">
      <rect x="0" y="0" width="200" height="120" rx="18" fill="#0F1B36" stroke="url(#cardStroke)"/>
      <text x="16" y="34" font-size="14" font-weight="600" fill="#22D3EE" letter-spacing="2">#5</text>
      <text x="16" y="72" font-size="20" font-weight="700" fill="#F5F7FA">MAG</text>
      <text x="16" y="98" font-size="16" fill="#C7CFE0">524w3</text>
    </g>
  </g>

  <!-- Brand -->
  <text x="80" y="595" font-family="Poppins, Inter, sans-serif" font-size="20" font-weight="600" fill="#8A94B0" letter-spacing="2">iptvtrial.org · 30-day UK IPTV trial · £14.99</text>
</svg>
